<?xml version="1.0" encoding="UTF-8"?><svg id="a" xmlns="http://www.w3.org/2000/svg" viewBox="0 0 305.5 117.2"><g id="b"><path id="c" d="M102.8,45.7c-2.2,11.6-20,6.7-25.7,5.6l4-20.5c5.7,1.1,24.1,2.8,21.8,15h0Zm-1.4,32.9c-2.5,12.8-23.8,7.1-30.7,5.7l4.4-22.6c6.9,1.4,28.9,3.6,26.3,16.9h0Zm-42.4-28.2l-5.2,27c-.5,2-2.5,3.2-4.4,2.7,0,0,0,0,0,0l-3.7-.7-8,11.1,13.2,2.6c2.5,.5,4.9,1,7.2,1.5l-3.3,17.1,10.1,2,3.3-16.9c2.8,.6,5.5,1.2,8.1,1.7l-3.2,16.8,10.2,2,3.3-17.1c17.3,2.4,30.1,.4,34.7-15.6,3.7-12.8-1.2-19.9-10.5-24.1,6.5-1.9,11.2-6.5,12-15.6,1.2-12.4-8.4-18.5-21.3-22.3l3.3-16.9-10.2-2-3.2,16.4c-2.7-.5-5.4-1-8.1-1.5l3.2-16.6-10.2-2-3.3,16.9-6.4-1.3h-.2s-13.8-2.8-13.8-2.8l-2.1,11,7.4,1.5c2.9,.2,5.1,2.7,5,5.7l-3.7,19.2h0Z" fill="#fab400"/><path id="d" d="M37.2,76.5H.6L0,75.9v-14C0,58,2.2,55,6.7,53c1.6-.3,3.3-.5,5-.5H28.1c1-.2,1.6-.8,1.6-1.6v-2.4c-.2-1.1-.7-1.6-1.5-1.6H9.5c-.8,0-1.3,.7-1.5,2l-.4,.4H.6L0,48.7c0-3.7,2.1-7.1,5.5-8.7,1.2-.6,2.6-1,4-.9H28.3c3.7,0,7,2.2,8.5,5.5,.6,1.2,.9,2.5,.9,3.8v2.6c0,3.9-2.2,6.9-6.7,9-1.5,.3-3.1,.5-4.7,.5H9.6c-1,.2-1.6,.8-1.6,1.6v6.3h29.1l.6,.6v7.1l-.6,.6Z"/><path id="e" d="M174.9,76h-6.3v-25.3h-12.6v25.3h-6.3v-25.3h-12.7v25.3h-6.3v-31.6h37.9c4.2,0,6.3,2.1,6.3,6.3v25.3Z"/><rect id="f" x="181.1" y="44.4" width="6.3" height="31.6"/><path id="g" d="M222.9,76h-6.4v-25.3h-17.3v25.3h-6.3v-31.6h23.6c4.2,0,6.3,2.1,6.4,6.3v25.3Z"/><path id="h" d="M252.9,57.1c-.7-2-1.9-3.7-3.7-5-1.7-1.2-3.8-1.9-5.9-1.9-2.1,0-4.2,.7-5.9,1.9-1.7,1.2-3,3-3.7,5h19Zm6.8,3.2c0,1.1-.1,2.1-.3,3.1h-25.5c.7,2,1.9,3.7,3.7,5,1.7,1.2,3.8,1.9,5.9,1.9,1.5,0,3-.3,4.3-.9,1.4-.6,2.5-1.6,3.5-2.8h7.3c-1,2.5-2.7,4.6-4.7,6.3-2.1,1.7-4.5,2.8-7.2,3.4-2.6,.5-5.3,.4-7.9-.4-2.6-.8-4.9-2.2-6.8-4.1-1.5-1.5-2.7-3.3-3.6-5.3-.8-2-1.3-4.1-1.3-6.2,0-2.1,.4-4.3,1.3-6.2,.8-2,2-3.8,3.6-5.3,2.3-2.3,5.2-3.8,8.4-4.5,3.2-.6,6.5-.3,9.4,.9,3,1.2,5.5,3.3,7.3,6,1.8,2.7,2.8,5.8,2.8,9.1h0Z"/><path id="i" d="M292.9,57.1h-6.3v-6.3h-16.2v25.3h-6.3v-31.6h22.5c4.2,0,6.3,2.1,6.3,6.3v6.3Z"/></g><path d="M293.6,42.1c0-3.4,2.7-5.9,5.9-5.9s5.9,2.5,5.9,5.9-2.7,5.9-5.9,5.9-5.9-2.5-5.9-5.9Zm5.9,4.9c2.7,0,4.9-2,4.9-4.9s-2.2-4.9-4.9-4.9-4.9,2-4.9,4.9,2.2,4.9,4.9,4.9Zm-2.4-7.9h3c1.4,0,2.3,.8,2.3,2,0,.9-.5,1.6-1.4,1.9l1.5,2.2h-1.1l-1.4-2.1h-1.7v2.1h-1.1v-6Zm2.9,3.1c.9,0,1.3-.5,1.3-1.1s-.4-1.1-1.3-1.1h-1.8v2.2h1.8Z"/></svg>